<svg width="66" height="65" viewBox="0 0 66 65" fill="none" xmlns="http://www.w3.org/2000/svg">
<path d="M13.2 0H14.33L16.13 1.07C16.2425 1.13725 16.3357 1.23244 16.4005 1.34633C16.4653 1.46023 16.4996 1.58895 16.5 1.72V14.76C16.5 15.1 16.67 15.27 17.01 15.27H21.24C21.6733 15.27 21.8833 15.0533 21.87 14.62C21.67 8.32 21.6667 4.24 21.86 2.38C21.9933 1.17333 22.8167 0.38 24.33 0H25.31C26.8967 0.486667 27.6533 1.57 27.58 3.25C27.5 5.03667 27.5033 8.79 27.59 14.51C27.59 14.7167 27.6867 14.8567 27.88 14.93L31.14 16.21C31.5733 16.3833 31.7233 16.6967 31.59 17.15C31.1433 18.6167 31.5633 19.47 32.85 19.71C33.27 19.7833 33.48 20.0333 33.48 20.46L33.49 31.96C33.49 32.24 33.3567 32.42 33.09 32.5C32.57 32.6533 32.1633 32.59 31.87 32.31C31.63 32.0767 31.5133 31.6667 31.52 31.08C31.56 28 31.56 24.87 31.52 21.69C31.5133 21.33 31.33 21.15 30.97 21.15L7.79 21.13C7.45667 21.13 7.28334 21.2967 7.27 21.63C6.99667 27.71 7.00667 33.78 7.3 39.84C7.7 47.97 18.59 46 23.64 45.98C29.65 45.95 32.58 41.74 31.33 35.77C31.2901 35.5725 31.3271 35.3675 31.4333 35.1979C31.5396 35.0283 31.7068 34.9072 31.9 34.86L32.61 34.68C32.9433 34.6 33.1467 34.7267 33.22 35.06C34.5133 41.1133 32.4633 45.31 27.07 47.65C26.75 47.79 26.6267 48.03 26.7 48.37C27.0533 49.9833 26.5533 51.13 25.2 51.81C24.37 52.23 23.41 51.93 22.47 52.16C22.15 52.24 21.9967 52.4433 22.01 52.77L22.2 57.63C22.2207 58.1279 22.4331 58.5985 22.7928 58.9433C23.1525 59.2881 23.6317 59.4804 24.13 59.48L33.47 59.5C35.0433 59.5067 35.8367 58.7233 35.85 57.15C35.9767 41.71 35.9733 26.1833 35.84 10.57C35.79 4.9 37.58 1.06 43.27 0H53.82C58.77 0.91 60.76 4 60.9 9.07C61.0133 12.9767 61.0267 16.9067 60.94 20.86C60.9333 21.3667 60.6933 21.5267 60.22 21.34L59.36 21C59.0533 20.88 58.9033 20.65 58.91 20.31C58.9833 16.2567 58.96 12.2033 58.84 8.15C58.61 0.15 49.79 1.88 44.68 1.98C39.78 2.06 38.1 4.69 38.1 9.48C38.08 25.4867 38.07 41.37 38.07 57.13C38.0702 58.2451 37.6331 59.3157 36.853 60.1107C36.073 60.9058 35.0124 61.3616 33.9 61.38C30.9867 61.4267 27.8833 61.39 24.59 61.27C19.5 61.08 19.84 56.44 20.15 52.83C20.1833 52.49 20.03 52.29 19.69 52.23L19.13 52.13C18.7433 52.0567 18.54 52.2167 18.52 52.61C18.32 58.1 18.11 62.89 25.26 63.06C30.82 63.19 39.62 64.92 39.61 56.25C39.5967 39.8433 39.5967 23.6367 39.61 7.63C39.6127 6.57883 40.031 5.57162 40.7734 4.82926C41.5158 4.0869 42.5215 3.67001 43.57 3.67L53.3 3.65C54.4033 3.65 55.4614 4.08828 56.2416 4.86844C57.0217 5.64859 57.46 6.7067 57.46 7.81L57.49 64.08C57.49 64.46 57.3033 64.67 56.93 64.71L56.06 64.81C55.6867 64.85 55.5 64.6833 55.5 64.31V7.76C55.5 7.17387 55.2672 6.61175 54.8527 6.19729C54.4383 5.78284 53.8761 5.55 53.29 5.55H43.79C43.4858 5.54999 43.1846 5.61033 42.9037 5.72754C42.6228 5.84475 42.3677 6.01654 42.153 6.23303C41.9384 6.44952 41.7685 6.70646 41.653 6.9891C41.5375 7.27173 41.4787 7.57449 41.48 7.88C41.5267 24.0133 41.5233 40.3767 41.47 56.97C41.46 61.47 38.9 64.12 34.69 65H23.22C20.24 64.26 18.1867 62.61 17.06 60.05C16.1 57.89 16.55 55.02 16.49 52.51C16.4889 52.443 16.474 52.3769 16.4463 52.3159C16.4186 52.2549 16.3787 52.2002 16.329 52.1552C16.2793 52.1102 16.2209 52.0759 16.1575 52.0543C16.094 52.0328 16.0268 52.0245 15.96 52.03C13.36 52.25 11.15 51.2 11.64 48.2C11.6657 48.0563 11.64 47.9075 11.5672 47.7784C11.4945 47.6493 11.379 47.5475 11.24 47.49C6.87 45.73 5.08 42.77 5.05 37.88C5.01667 32.5733 4.97667 27.27 4.93 21.97C4.91 20.46 5.29 19.82 6.61 19.24C6.91667 19.1 7.06 18.86 7.04 18.52C6.90667 16.2267 8.07667 15.1433 10.55 15.27C10.9233 15.29 11.0833 15.1167 11.03 14.75C10.7967 12.9967 10.75 11.2233 10.89 9.43C10.9006 9.15272 11.0209 8.89207 11.2244 8.70538C11.4278 8.51869 11.6979 8.42126 11.975 8.43452C12.2522 8.44778 12.5137 8.57065 12.7022 8.77609C12.8907 8.98153 12.9906 9.25272 12.98 9.53L12.93 14.64C12.9307 14.7766 12.9795 14.9082 13.0676 15.011C13.1557 15.1137 13.2772 15.1808 13.41 15.2L13.94 15.28C14.0086 15.2901 14.0787 15.2852 14.1452 15.2657C14.2118 15.2462 14.2734 15.2124 14.3256 15.1668C14.3779 15.1212 14.4197 15.0647 14.4481 15.0014C14.4764 14.9381 14.4907 14.8694 14.49 14.8L14.51 2.45C14.5109 2.35534 14.486 2.26241 14.438 2.18086C14.39 2.09931 14.3206 2.0321 14.2369 1.98619C14.1533 1.94029 14.0585 1.91736 13.9623 1.91979C13.8661 1.92222 13.7721 1.94991 13.69 2L13.37 2.2C13.1167 2.36 12.99 2.58667 12.99 2.88L12.98 5.72C12.9797 5.94262 12.9005 6.15868 12.7564 6.32942C12.6123 6.50017 12.4129 6.61445 12.1938 6.65176C11.9747 6.68908 11.7503 6.64699 11.5609 6.53305C11.3714 6.41912 11.2293 6.24077 11.16 6.03C10.1267 3.06333 10.8067 1.05333 13.2 0ZM25.6304 2.6715C25.6307 2.50974 25.5667 2.35449 25.4525 2.23991C25.3383 2.12533 25.1833 2.06079 25.0215 2.0605L24.5015 2.0596C24.4214 2.05946 24.342 2.07509 24.268 2.10561C24.1939 2.13613 24.1266 2.18095 24.0698 2.23749C24.0131 2.29403 23.968 2.36119 23.9373 2.43515C23.9065 2.5091 23.8905 2.58839 23.8904 2.6685L23.8696 14.6285C23.8693 14.7903 23.9333 14.9455 24.0475 15.0601C24.1617 15.1747 24.3167 15.2392 24.4785 15.2395L24.9985 15.2404C25.0786 15.2405 25.158 15.2249 25.232 15.1944C25.3061 15.1639 25.3734 15.1191 25.4302 15.0625C25.4869 15.006 25.532 14.9388 25.5627 14.8649C25.5935 14.7909 25.6095 14.7116 25.6096 14.6315L25.6304 2.6715ZM29.74 18.11C29.74 17.8315 29.6294 17.5645 29.4325 17.3675C29.2356 17.1706 28.9685 17.06 28.69 17.06H9.81C9.67211 17.06 9.53558 17.0872 9.40818 17.1399C9.28079 17.1927 9.16504 17.27 9.06754 17.3675C8.97004 17.465 8.8927 17.5808 8.83993 17.7082C8.78716 17.8356 8.76 17.9721 8.76 18.11V18.15C8.76 18.2879 8.78716 18.4244 8.83993 18.5518C8.8927 18.6792 8.97004 18.795 9.06754 18.8925C9.16504 18.99 9.28079 19.0673 9.40818 19.1201C9.53558 19.1728 9.67211 19.2 9.81 19.2H28.69C28.9685 19.2 29.2356 19.0894 29.4325 18.8925C29.6294 18.6955 29.74 18.4285 29.74 18.15V18.11ZM24.85 48.99C24.85 48.86 24.8244 48.7313 24.7746 48.6111C24.7249 48.491 24.652 48.3819 24.56 48.29C24.4681 48.198 24.359 48.1251 24.2389 48.0754C24.1187 48.0256 23.99 48 23.86 48H14.3C14.17 48 14.0413 48.0256 13.9211 48.0754C13.801 48.1251 13.6919 48.198 13.6 48.29C13.508 48.3819 13.4351 48.491 13.3854 48.6111C13.3356 48.7313 13.31 48.86 13.31 48.99V49.03C13.31 49.2926 13.4143 49.5444 13.6 49.73C13.7856 49.9157 14.0374 50.02 14.3 50.02H23.86C23.99 50.02 24.1187 49.9944 24.2389 49.9446C24.359 49.8949 24.4681 49.822 24.56 49.73C24.652 49.6381 24.7249 49.529 24.7746 49.4089C24.8244 49.2887 24.85 49.16 24.85 49.03V48.99Z" fill="white"/>
<path d="M60.52 23.9399H59.4C59.1625 23.9399 58.97 24.1325 58.97 24.3699V64.2499C58.97 64.4874 59.1625 64.6799 59.4 64.6799H60.52C60.7575 64.6799 60.95 64.4874 60.95 64.2499V24.3699C60.95 24.1325 60.7575 23.9399 60.52 23.9399Z" fill="white"/>
<path d="M25.65 24.04H12.89C12.4647 24.04 12.12 24.3848 12.12 24.81V24.99C12.12 25.4153 12.4647 25.76 12.89 25.76H25.65C26.0753 25.76 26.42 25.4153 26.42 24.99V24.81C26.42 24.3848 26.0753 24.04 25.65 24.04Z" fill="white"/>
<path d="M23.5617 28.3572L15.2217 28.3427C14.7191 28.3418 14.311 28.7485 14.3101 29.2511L14.3099 29.3511C14.3091 29.8536 14.7158 30.2618 15.2184 30.2626L23.5583 30.2772C24.0609 30.2781 24.4691 29.8714 24.4699 29.3688L24.4701 29.2688C24.471 28.7662 24.0643 28.3581 23.5617 28.3572Z" fill="white"/>
</svg>
