<svg width="66" height="66" viewBox="0 0 66 66" fill="none" xmlns="http://www.w3.org/2000/svg">
<path d="M49.36 24.195L50.57 23.205C50.6818 23.1129 50.8117 23.0479 50.95 23.015C52.9767 22.495 54.3567 23.1716 55.09 25.045C55.1489 25.2025 55.1661 25.3746 55.14 25.545L54.97 26.745C54.9514 26.8851 54.9642 27.0271 55.0075 27.1605C55.0508 27.2938 55.1234 27.415 55.22 27.515C57.0133 29.335 58.8233 31.1316 60.65 32.905C64.72 36.815 60.57 43.375 55.55 41.425C53.03 40.455 50.21 36.945 48.09 34.725C47.85 34.4783 47.56 34.3816 47.22 34.435C44.57 34.845 42 32.705 43.76 30.085C44.06 29.6316 44.3167 29.235 44.53 28.895C44.6197 28.7524 44.6569 28.5823 44.6353 28.4145C44.6136 28.2468 44.5343 28.0921 44.4114 27.9775C44.2885 27.863 44.1298 27.7959 43.9632 27.7881C43.7965 27.7804 43.6325 27.8323 43.5 27.935C41.92 29.115 41.43 30.495 41.46 32.605C41.5467 38.1983 38.8867 41.4816 33.48 42.455C32.05 42.705 29.92 42.435 28.75 41.725C28.05 41.2983 27.99 40.795 28.57 40.215L32.72 36.015C32.9867 35.7483 33.1433 35.4216 33.19 35.035C33.4367 33.0083 32.5833 32.2016 30.63 32.615C30.31 32.6816 30.0367 32.8316 29.81 33.065L25.36 37.465C25.2679 37.5571 25.1544 37.625 25.0297 37.6626C24.9051 37.7003 24.773 37.7065 24.6453 37.6808C24.5176 37.655 24.3983 37.5981 24.2979 37.5151C24.1975 37.4321 24.1192 37.3256 24.07 37.205C21.47 30.875 25.84 23.825 32.96 24.305C35.25 24.455 36.27 24.125 37.65 22.485C37.87 22.225 37.8767 21.965 37.67 21.705C35.0833 18.3716 31.9933 15.6283 28.4 13.475C28.0933 13.295 27.87 13.045 27.73 12.725C26.9433 10.945 25.9833 9.25497 24.85 7.65497C24.5592 7.24506 24.414 6.74959 24.4376 6.24755C24.4611 5.74552 24.6521 5.26583 24.98 4.88497C25.308 4.50411 25.754 4.24401 26.2469 4.14614C26.7399 4.04827 27.2514 4.11826 27.7 4.34497C28.9667 4.98497 30.42 5.76497 32.06 6.68497C33.16 7.31163 34.12 8.2283 34.94 9.43497C36.94 12.4083 39.3767 15.0016 42.25 17.215C42.5033 17.415 42.7333 17.3916 42.94 17.145L44.77 14.915C44.8544 14.8151 44.9153 14.6985 44.9482 14.5738C44.9811 14.4491 44.9851 14.3196 44.96 14.195C43.6 6.61497 50.4 0.414967 57.62 3.51497C57.7571 3.57302 57.8778 3.66383 57.9717 3.77941C58.0655 3.895 58.1295 4.03184 58.1581 4.17793C58.1868 4.32403 58.1791 4.47491 58.1358 4.61736C58.0926 4.75981 58.015 4.88947 57.91 4.99497L53.5 9.41497C53.1333 9.7883 52.9533 10.235 52.96 10.755C52.9867 12.195 53.7667 12.8916 55.3 12.845C55.6733 12.8316 55.9933 12.6916 56.26 12.425L60.8 7.89497C60.9029 7.79295 61.0286 7.71697 61.1668 7.67335C61.305 7.62973 61.4515 7.61973 61.5943 7.64418C61.7371 7.66864 61.8721 7.72684 61.9878 7.81394C62.1036 7.90104 62.1969 8.01453 62.26 8.14497C65.52 14.785 59.65 21.365 52.84 21.055C50.76 20.955 49.04 21.645 48.49 23.625C48.46 23.7378 48.4663 23.8576 48.5079 23.9671C48.5495 24.0765 48.6244 24.1698 48.7214 24.2334C48.8185 24.2971 48.9328 24.3276 49.0477 24.3207C49.1626 24.3138 49.272 24.2697 49.36 24.195ZM34.74 31.675L35.48 35.155C35.58 35.6083 35.47 36.005 35.15 36.345L31.67 40.005C31.6239 40.0523 31.5931 40.1124 31.5815 40.1774C31.5699 40.2424 31.5781 40.3094 31.605 40.3698C31.632 40.4301 31.6764 40.481 31.7325 40.5158C31.7887 40.5506 31.854 40.5677 31.92 40.565C35.6867 40.4916 38.1 38.8283 39.16 35.575C39.78 33.665 38.86 29.855 40.32 28.385C43.0467 25.645 45.8 22.9216 48.58 20.215C50.95 17.905 53.62 19.415 56.14 18.585C59.46 17.4983 61.07 15.025 60.97 11.165C60.9687 11.0994 60.948 11.0358 60.9104 10.9821C60.8728 10.9284 60.82 10.8871 60.7589 10.8635C60.6977 10.8399 60.631 10.8351 60.567 10.8496C60.5031 10.8641 60.445 10.8973 60.4 10.945L56.86 14.825C56.7585 14.9323 56.6319 15.0123 56.4921 15.0578C56.3523 15.1032 56.2037 15.1126 56.06 15.085L52.26 14.325C52.0707 14.2891 51.8963 14.1976 51.7592 14.0623C51.6221 13.9269 51.5283 13.7538 51.49 13.565L50.73 9.87497C50.6934 9.70109 50.7027 9.5204 50.7571 9.35044C50.8114 9.18048 50.9088 9.02703 51.04 8.90497L54.84 5.35497C54.8877 5.31 54.9209 5.25185 54.9354 5.18793C54.9499 5.12401 54.945 5.05722 54.9214 4.99608C54.8978 4.93493 54.8566 4.8822 54.8029 4.8446C54.7492 4.807 54.6855 4.78624 54.62 4.78497C49.13 4.80497 46.57 8.23497 47.08 13.385C47.22 14.8383 46.9533 15.9016 46.28 16.575C43.93 18.915 37.55 26.695 34.27 26.395C28.6233 25.8683 25.6067 28.355 25.22 33.855C25.2159 33.9253 25.2327 33.9957 25.2684 34.0568C25.304 34.1179 25.3567 34.1668 25.4195 34.1971C25.4823 34.2275 25.5523 34.2378 25.6203 34.2267C25.6882 34.2156 25.7509 34.1836 25.8 34.135L29.58 30.515C29.8133 30.295 30.09 30.2183 30.41 30.285L34.12 31.055C34.46 31.1283 34.6667 31.335 34.74 31.675ZM32.03 8.97497L27.4 6.46497C26.9733 6.23163 26.8467 6.34163 27.02 6.79497C28.1133 9.6083 29.04 11.2716 29.8 11.785C33.26 14.125 36.3567 16.8916 39.09 20.085C39.3367 20.3716 39.5933 20.3783 39.86 20.105L40.66 19.295C40.7292 19.2231 40.7823 19.1372 40.8157 19.0432C40.849 18.9491 40.8618 18.849 40.8533 18.7495C40.8448 18.6501 40.8151 18.5536 40.7662 18.4666C40.7174 18.3796 40.6505 18.304 40.57 18.245C37.2633 15.8583 34.5867 12.9316 32.54 9.46497C32.4158 9.25546 32.2393 9.0859 32.03 8.97497ZM52.7794 26.4879C52.8704 26.395 52.9421 26.2851 52.9906 26.1644C53.0391 26.0438 53.0634 25.9148 53.062 25.7848C53.0606 25.6548 53.0337 25.5264 52.9827 25.4068C52.9317 25.2872 52.8576 25.1788 52.7647 25.0879L52.7219 25.0459C52.629 24.9549 52.5191 24.8831 52.3985 24.8346C52.2779 24.7862 52.1489 24.7619 52.0189 24.7633C51.8889 24.7646 51.7604 24.7916 51.6408 24.8426C51.5212 24.8936 51.4129 24.9677 51.3219 25.0606L45.6406 30.8621C45.5496 30.955 45.4779 31.0649 45.4294 31.1855C45.3809 31.3061 45.3566 31.4351 45.358 31.5651C45.3594 31.6951 45.3863 31.8236 45.4373 31.9432C45.4883 32.0627 45.5624 32.1711 45.6553 32.2621L45.6981 32.3041C45.791 32.395 45.9009 32.4668 46.0215 32.5153C46.1421 32.5638 46.2711 32.588 46.4011 32.5867C46.5311 32.5853 46.6596 32.5583 46.7792 32.5073C46.8988 32.4563 47.0071 32.3823 47.0981 32.2894L52.7794 26.4879ZM46.43 25.065C45.8033 25.3983 45.5933 25.9316 45.8 26.665C45.9533 27.2316 46.2433 27.315 46.67 26.915L47.32 26.295C47.4579 26.1698 47.5445 25.9989 47.5635 25.8146C47.5826 25.6302 47.5327 25.4451 47.4234 25.294C47.314 25.1429 47.1527 25.0362 46.9698 24.994C46.7868 24.9519 46.5949 24.9771 46.43 25.065ZM53.22 29.025L49.51 32.725C49.4701 32.7641 49.4384 32.8107 49.4167 32.8623C49.3951 32.9138 49.3839 32.9691 49.3839 33.025C49.3839 33.0808 49.3951 33.1362 49.4167 33.1877C49.4384 33.2392 49.4701 33.2859 49.51 33.325L54.91 38.745C55.2134 39.0493 55.568 39.2966 55.9534 39.4729C56.3388 39.6491 56.7475 39.7508 57.1562 39.7722C57.5648 39.7936 57.9654 39.7341 58.3349 39.5973C58.7045 39.4605 59.0358 39.2491 59.31 38.975L59.44 38.845C59.7145 38.5714 59.9266 38.2406 60.0641 37.8714C60.2016 37.5021 60.2619 37.1018 60.2415 36.6932C60.221 36.2846 60.1203 35.8757 59.945 35.4899C59.7698 35.1042 59.5234 34.7491 59.22 34.445L53.82 29.035C53.7816 28.9944 53.7354 28.9619 53.6843 28.9394C53.6331 28.9169 53.578 28.9048 53.5221 28.9039C53.4662 28.9029 53.4107 28.9132 53.3588 28.934C53.307 28.9548 53.2598 28.9857 53.22 29.025Z" fill="white"/>
<path d="M21.37 45.715C24.72 44.525 27.23 43.675 30.87 44.705C35.7633 46.0983 40.6567 47.4183 45.55 48.665C45.9167 48.7583 46.3567 49.0917 46.87 49.665C47.1033 49.9183 47.37 49.9617 47.67 49.795C51.0633 47.9283 54.4167 46.005 57.73 44.025C60.93 42.105 66.29 48.175 60.57 51.685C55.03 55.0917 49.39 58.3183 43.65 61.365C42.4033 62.025 41.0633 62.3517 39.63 62.345C34.7233 62.305 29.8533 62.285 25.02 62.285C23.6 62.285 22.49 61.735 21.31 61.065C21.0033 60.8917 20.83 60.9783 20.79 61.325L20.62 62.775C20.58 63.1283 20.3833 63.305 20.03 63.305L11.38 63.295C10.9733 63.295 10.7567 63.0917 10.73 62.685L10.67 61.805C10.6433 61.3783 10.42 61.165 10 61.165L3.68 61.175C3.36704 61.175 3.06691 61.0507 2.84561 60.8294C2.62432 60.6081 2.5 60.308 2.5 59.995V46.075C2.5 45.77 2.62116 45.4775 2.83683 45.2618C3.05249 45.0462 3.345 44.925 3.65 44.925L10.02 44.955C10.3333 44.955 10.5 44.7983 10.52 44.485C10.5533 43.9783 10.7267 43.5783 11.04 43.285C11.3 43.0383 11.69 42.915 12.21 42.915C14.8367 42.895 17.4567 42.9183 20.07 42.985C20.2312 42.9899 20.3846 43.0554 20.4995 43.1685C20.6145 43.2816 20.6825 43.4339 20.69 43.595L20.78 45.325C20.8 45.7183 20.9967 45.8483 21.37 45.715ZM18.75 45.435C18.75 45.368 18.7368 45.3017 18.7112 45.2398C18.6855 45.178 18.648 45.1217 18.6006 45.0744C18.5533 45.027 18.497 44.9895 18.4352 44.9638C18.3733 44.9382 18.307 44.925 18.24 44.925H13.14C13.0047 44.925 12.875 44.9787 12.7794 45.0744C12.6837 45.17 12.63 45.2997 12.63 45.435V60.675C12.63 60.742 12.6432 60.8083 12.6688 60.8702C12.6945 60.9321 12.732 60.9883 12.7794 61.0356C12.8267 61.083 12.883 61.1206 12.9448 61.1462C13.0067 61.1718 13.073 61.185 13.14 61.185H18.24C18.307 61.185 18.3733 61.1718 18.4352 61.1462C18.497 61.1206 18.5533 61.083 18.6006 61.0356C18.648 60.9883 18.6855 60.9321 18.7112 60.8702C18.7368 60.8083 18.75 60.742 18.75 60.675V45.435ZM30.53 51.175C30.6313 51.1151 30.743 51.0762 30.8582 51.0607C30.9734 51.0452 31.0897 51.0535 31.2 51.085C35.0867 52.1383 39.0433 53.2217 43.07 54.335C44.48 54.725 45.83 54.035 45.92 52.535C45.9512 52.06 45.8153 51.5891 45.5359 51.2038C45.2565 50.8185 44.8511 50.543 44.39 50.425C39.97 49.285 35.5867 48.125 31.24 46.945C27.46 45.925 24.73 46.565 21.27 47.805C20.9233 47.925 20.75 48.1683 20.75 48.535V56.665C20.7499 57.5767 21.1086 58.4518 21.7486 59.1012C22.3886 59.7505 23.2584 60.1219 24.17 60.135C30.0167 60.2217 35.2533 60.2183 39.88 60.125C41.3 60.0983 42.64 59.7317 43.9 59.025C49.4267 55.9183 54.85 52.7717 60.17 49.585C60.574 49.3426 60.871 48.9559 61.0009 48.503C61.1309 48.0501 61.0841 47.5647 60.87 47.145C60.17 45.795 58.98 45.755 57.71 46.465C54.63 48.1783 51.5333 49.915 48.42 51.675C48.1267 51.8483 47.96 52.1017 47.92 52.435C47.42 56.595 44.53 56.815 41.01 55.895C37.6567 55.015 34.3267 54.115 31.02 53.195C30.66 53.095 30.3933 52.9317 30.22 52.705C29.7333 52.085 29.8367 51.575 30.53 51.175ZM10.63 47.4097C10.6299 47.3611 10.6203 47.313 10.6016 47.2682C10.5829 47.2233 10.5556 47.1826 10.5212 47.1483C10.4868 47.1139 10.446 47.0868 10.401 47.0682C10.3561 47.0497 10.308 47.0402 10.2594 47.0403L4.8594 47.0497C4.81081 47.0498 4.76272 47.0595 4.71786 47.0781C4.673 47.0968 4.63227 47.1241 4.59798 47.1586C4.56368 47.193 4.53651 47.2338 4.518 47.2788C4.49949 47.3237 4.49001 47.3718 4.4901 47.4204L4.51 58.8203C4.51008 58.8689 4.51973 58.917 4.53839 58.9619C4.55706 59.0067 4.58438 59.0475 4.61879 59.0818C4.65321 59.1161 4.69404 59.1432 4.73896 59.1618C4.78388 59.1803 4.83201 59.1898 4.8806 59.1897L10.2806 59.1803C10.3292 59.1802 10.3773 59.1705 10.4221 59.1519C10.467 59.1332 10.5077 59.1059 10.542 59.0714C10.5763 59.037 10.6035 58.9962 10.622 58.9513C10.6405 58.9063 10.65 58.8582 10.6499 58.8096L10.63 47.4097Z" fill="white"/>
</svg>
