<svg width="62" height="65" viewBox="0 0 62 65" fill="none" xmlns="http://www.w3.org/2000/svg">
<path d="M24.32 0H26.99C33.15 1.61 34.24 5.42 34.24 11.59C34.2333 15.51 34.29 19.4367 34.41 23.37C34.4233 23.81 34.65 24.0167 35.09 23.99L37.19 23.89C37.2789 23.8852 37.3655 23.86 37.4432 23.8164C37.5208 23.7728 37.5873 23.7118 37.6376 23.6383C37.6879 23.5649 37.7206 23.4808 37.7331 23.3926C37.7457 23.3045 37.7378 23.2146 37.71 23.13C35.44 15.93 44.72 15.94 48.04 18.92C48.1849 19.0489 48.3008 19.2073 48.3801 19.3849C48.4594 19.5624 48.5003 19.755 48.5 19.95V23.47C48.5 23.7567 48.6433 23.9033 48.93 23.91C52.1167 23.9767 55.3067 24.0633 58.5 24.17C61.88 24.28 62.46 28.09 59.87 29.72C59.61 29.8867 59.4533 30.12 59.4 30.42C57.26 42.1467 50.1 47.9533 37.92 47.84C37.6333 47.8333 37.49 47.9733 37.49 48.26L37.47 52.2C37.4699 52.3497 37.4313 52.4971 37.3578 52.6283C37.2843 52.7595 37.1784 52.8703 37.05 52.95L35.8 53.71C35.52 53.8767 35.3867 54.1233 35.4 54.45C35.53 58.27 36.65 63.82 31.66 65H30.2C25.3 63.55 26.47 58.47 26.61 54.57C26.63 54.15 26.4567 53.8367 26.09 53.63L25.07 53.05C24.7233 52.85 24.5467 52.5467 24.54 52.14L24.51 48.45C24.5033 48.0433 24.3 47.84 23.9 47.84C11.88 47.9 4.75 42.09 2.51 30.41C2.44333 30.05 2.25 29.78 1.93 29.6C-0.9 28 0.65 23.92 4 23.96C7 23.9933 10.0033 23.99 13.01 23.95C13.3433 23.95 13.51 23.7833 13.51 23.45L13.49 20C13.49 19.6067 13.63 19.27 13.91 18.99C17.13 15.83 26.38 15.9 24.35 23.16C24.329 23.2404 24.3258 23.3244 24.3406 23.406C24.3555 23.4876 24.388 23.5647 24.4359 23.6317C24.4838 23.6988 24.5458 23.754 24.6174 23.7935C24.689 23.833 24.7685 23.8557 24.85 23.86L26.92 23.99C27.3933 24.0233 27.6333 23.8 27.64 23.32L27.78 8.29C27.7831 8.13479 27.7545 7.98036 27.6961 7.83601C27.6377 7.69166 27.5506 7.56035 27.44 7.45C26.4533 6.47 25.3633 6.35 24.17 7.09C23.8633 7.27667 23.69 7.55333 23.65 7.92L23.33 10.65C23.29 10.9633 23.1333 11.19 22.86 11.33C21.14 12.2167 19.5167 12.3333 17.99 11.68C16.32 10.97 16.68 9.02 17.02 7.38C17.8267 3.45333 20.26 0.993333 24.32 0ZM31.88 22C32.01 18.1 32.95 8.51 31.08 5.29C27.76 -0.42 19.24 2.33 18.99 8.64C18.9701 8.96091 19.0785 9.27658 19.2914 9.51757C19.5042 9.75855 19.8041 9.90511 20.125 9.925C20.4459 9.94489 20.7616 9.83649 21.0026 9.62363C21.2435 9.41078 21.3901 9.11091 21.41 8.79L21.53 7.19C21.5567 6.85 21.6767 6.54667 21.89 6.28C23.92 3.66 29.55 3.79 29.89 7.5C30.1967 10.7733 30.1667 16.04 29.8 23.3C29.7733 23.7733 29.9933 23.9733 30.46 23.9L32.19 23.62C32.2661 23.6095 32.3377 23.5779 32.3966 23.5287C32.4556 23.4795 32.4996 23.4148 32.5236 23.3418C32.5475 23.2689 32.5505 23.1906 32.5322 23.1161C32.5139 23.0415 32.475 22.9736 32.42 22.92L32.13 22.63C32.0478 22.5481 31.9832 22.4499 31.9402 22.3416C31.8972 22.2333 31.8767 22.117 31.88 22ZM15.72 22.31L15.44 23.2C15.3 23.6667 15.4733 23.9033 15.96 23.91L21.88 23.99C21.9618 23.9914 22.043 23.9762 22.1189 23.9456C22.1947 23.9149 22.2636 23.8693 22.3214 23.8114C22.3793 23.7536 22.4249 23.6847 22.4556 23.6089C22.4862 23.533 22.5014 23.4518 22.5 23.37L22.47 20.27C22.4674 20.0835 22.3925 19.9054 22.2615 19.7745C22.1305 19.6435 21.9539 19.57 21.77 19.57L16.78 19.54C16.4133 19.54 16.1167 19.6833 15.89 19.97C15.4367 20.55 15.3433 21.0567 15.61 21.49C15.77 21.75 15.8067 22.0233 15.72 22.31ZM46.4497 20.5697C46.4485 20.4331 46.4204 20.2981 46.3671 20.1724C46.3137 20.0467 46.2361 19.9327 46.1387 19.837C46.0412 19.7412 45.9259 19.6656 45.7993 19.6145C45.6727 19.5633 45.5372 19.5376 45.4006 19.5388L40.5208 19.5814C40.245 19.5838 39.9814 19.6957 39.7881 19.8924C39.5948 20.0891 39.4875 20.3546 39.4899 20.6304L39.5103 22.9703C39.5115 23.1069 39.5396 23.2419 39.5929 23.3676C39.6463 23.4933 39.7239 23.6073 39.8213 23.703C39.9188 23.7988 40.0341 23.8744 40.1607 23.9255C40.2873 23.9767 40.4228 24.0024 40.5594 24.0012L45.4392 23.9586C45.715 23.9562 45.9786 23.8443 46.1719 23.6476C46.3652 23.4509 46.4725 23.1854 46.4701 22.9096L46.4497 20.5697ZM59.06 27.41C59.1814 27.3082 59.2685 27.1713 59.3093 27.0182C59.3501 26.865 59.3426 26.703 59.288 26.5543C59.2333 26.4055 59.134 26.2773 59.0037 26.187C58.8734 26.0968 58.7185 26.0489 58.56 26.05H3.52C3.35336 26.0513 3.19108 26.1034 3.05479 26.1993C2.9185 26.2952 2.81465 26.4304 2.75709 26.5867C2.69953 26.7431 2.69099 26.9133 2.7326 27.0747C2.77421 27.2361 2.86399 27.3809 2.99 27.49L3.46 27.89C3.70667 28.0967 3.99333 28.2 4.32 28.2H57.64C57.9667 28.2 58.25 28.0967 58.49 27.89L59.06 27.41ZM56.7 30.3H5.34C5.32939 30.3 5.31922 30.3042 5.31172 30.3117C5.30421 30.3192 5.3 30.3294 5.3 30.34V30.4C5.3 34.4207 7.06157 38.2767 10.1972 41.1197C11.7498 42.5275 13.593 43.6442 15.6215 44.406C17.6501 45.1679 19.8243 45.56 22.02 45.56H40.02C44.4544 45.56 48.7072 43.9628 51.8428 41.1197C54.9784 38.2767 56.74 34.4207 56.74 30.4V30.34C56.74 30.3294 56.7358 30.3192 56.7283 30.3117C56.7208 30.3042 56.7106 30.3 56.7 30.3ZM26.89 50.41L26.44 50.79C26.3438 50.8695 26.2744 50.9767 26.241 51.0969C26.2076 51.2172 26.2119 51.3448 26.2533 51.4625C26.2948 51.5803 26.3713 51.6824 26.4726 51.7553C26.574 51.8282 26.6952 51.8682 26.82 51.87L34.11 52.09C34.2765 52.0964 34.4403 52.0441 34.5734 51.942C34.7065 51.8399 34.8007 51.6943 34.84 51.53C35.1067 50.3967 35.28 49.28 35.36 48.18C35.3627 48.135 35.3562 48.0899 35.3409 48.0476C35.3255 48.0052 35.3016 47.9664 35.2707 47.9336C35.2398 47.9008 35.2025 47.8747 35.1611 47.8569C35.1197 47.8391 35.0751 47.8299 35.03 47.83L27.47 47.81C27.11 47.81 26.85 47.97 26.69 48.29C26.41 48.8633 26.4733 49.31 26.88 49.63C27.2 49.8833 27.2033 50.1433 26.89 50.41ZM33.25 55.12L33.67 55.14C33.7088 55.1424 33.7473 55.1315 33.779 55.109C33.8107 55.0865 33.8337 55.0538 33.8443 55.0164C33.8548 54.9789 33.8522 54.939 33.8368 54.9033C33.8215 54.8675 33.7944 54.8382 33.76 54.82C32.4 54.0467 30.9733 53.8533 29.48 54.24C29.12 54.3333 28.95 54.5667 28.97 54.94C29.1033 56.9067 29.1167 58.8733 29.01 60.84C28.9946 61.1017 29.036 61.3636 29.1313 61.608C29.2265 61.8525 29.3735 62.0736 29.5622 62.2566C29.7509 62.4397 29.9769 62.5802 30.225 62.6688C30.473 62.7573 30.7373 62.7919 31 62.77C32.4333 62.65 33.0767 61.8933 32.93 60.5C32.75 58.7867 32.7667 57.07 32.98 55.35C33 55.19 33.09 55.1133 33.25 55.12Z" fill="white"/>
</svg>
